<svg width="32" height="32" viewBox="0 0 32 32" fill="none" xmlns="http://www.w3.org/2000/svg">
<path d="M13.0542 8.56921C11.2707 9.28048 9.80069 10.6066 8.91016 12.3077H11.4745C11.7482 10.9692 12.2851 9.69841 13.0542 8.56921Z" fill="#037CA9"/>
<path d="M11.0768 16C11.0773 15.1764 11.1361 14.3538 11.2528 13.5385H8.39128C7.86957 15.138 7.86957 16.862 8.39128 18.4615H11.2528C11.1361 17.6462 11.0773 16.8236 11.0768 16Z" fill="#037CA9"/>
<path d="M19.2616 12.3077C18.5988 9.63815 17.2684 8 16.0001 8C14.7318 8 13.3988 9.63815 12.7385 12.3077H19.2616Z" fill="#037CA9"/>
<path d="M12.3076 16C12.306 16.8239 12.3665 17.6467 12.4886 18.4615H19.5113C19.7526 16.8294 19.7526 15.1706 19.5113 13.5385H12.4886C12.3665 14.3533 12.306 15.1761 12.3076 16Z" fill="#037CA9"/>
<path d="M8.91016 19.6923C9.80069 21.3934 11.2707 22.7195 13.0542 23.4308C12.2851 22.3016 11.7482 21.0308 11.4745 19.6923H8.91016Z" fill="#037CA9"/>
<path d="M20.9231 16C20.9226 16.8236 20.8638 17.6462 20.7471 18.4615H23.6086C24.1303 16.862 24.1303 15.138 23.6086 13.5385H20.7471C20.8638 14.3538 20.9226 15.1764 20.9231 16Z" fill="#037CA9"/>
<path d="M16 1.23077C13.0789 1.23077 10.2234 2.09697 7.79461 3.71984C5.36582 5.3427 3.47281 7.64934 2.35496 10.3481C1.23711 13.0468 0.944632 16.0164 1.51451 18.8813C2.08438 21.7463 3.49101 24.3779 5.55653 26.4434C7.62204 28.5089 10.2537 29.9156 13.1186 30.4854C15.9836 31.0553 18.9532 30.7628 21.6519 29.645C24.3506 28.5271 26.6573 26.6341 28.2801 24.2054C29.903 21.7766 30.7692 18.9211 30.7692 16C30.7646 12.0844 29.2071 8.3304 26.4383 5.56162C23.6696 2.79284 19.9156 1.23533 16 1.23077ZM16 25.2308C14.1743 25.2308 12.3896 24.6894 10.8716 23.6751C9.35362 22.6608 8.17049 21.2192 7.47183 19.5325C6.77318 17.8458 6.59038 15.9898 6.94655 14.1992C7.30272 12.4086 8.18186 10.7638 9.47281 9.47287C10.7638 8.18192 12.4085 7.30277 14.1991 6.9466C15.9897 6.59043 17.8457 6.77323 19.5324 7.47189C21.2191 8.17054 22.6608 9.35367 23.6751 10.8717C24.6893 12.3897 25.2307 14.1743 25.2307 16C25.228 18.4473 24.2545 20.7936 22.524 22.5241C20.7935 24.2546 18.4473 25.228 16 25.2308Z" fill="#037CA9"/>
<path d="M12.7385 19.6923C13.4013 22.3619 14.7318 24 16.0001 24C17.2684 24 18.6013 22.3619 19.2616 19.6923H12.7385Z" fill="#037CA9"/>
<path d="M18.9458 8.56921C19.7148 9.69841 20.2518 10.9692 20.5255 12.3077H23.0898C22.1993 10.6066 20.7293 9.28048 18.9458 8.56921Z" fill="#037CA9"/>
<path d="M18.9458 23.4308C20.7293 22.7195 22.1993 21.3934 23.0898 19.6923H20.5255C20.2518 21.0308 19.7148 22.3016 18.9458 23.4308Z" fill="#037CA9"/>
</svg>
